# Blender v2.78 (sub 0) OBJ File: '2.blend'
# www.blender.org
mtllib PUSHILIN_pine_tree.mtl
o pine_tree
v -0.25306662917137146 -0.47864586114883423 0.6523799300193787
v -0.15681906044483185 0.02535676211118698 0.39475196599960327
v -0.655404806137085 -0.47864586114883423 -0.22716177999973297
v -0.39008602499961853 0.01738773286342621 -0.1142272800207138
v 0.6264761686325073 -0.47864586114883423 0.25004175305366516
v 0.3549235463142395 0.01387755386531353 0.16636434197425842
v 0.22413796186447144 -0.47864586114883423 -0.6294999122619629
v 0.12145891785621643 0.0012854622909799218 -0.34250402450561523
v -0.20804090797901154 0.02196686528623104 0.529334306716919
v -0.5286481976509094 0.015734098851680756 -0.17078761756420135
v 0.17408651113510132 -0.0013524023815989494 -0.48613375425338745
v 0.49499499797821045 0.01170931663364172 0.21384066343307495
v -0.09403328597545624 0.4920956492424011 0.2782278060913086
v -0.2544064521789551 0.4573013484477997 -0.06830835342407227
v 0.09490664303302765 0.4164855480194092 -0.22220715880393982
v 0.2552787661552429 0.4566894769668579 0.12372443079948425
v -0.13053037226200104 0.4941854178905487 0.36994221806526184
v -0.35000866651535034 0.4537440836429596 -0.10514013469219208
v 0.1281173825263977 0.40267181396484375 -0.3169422745704651
v 0.3476479649543762 0.45253080129623413 0.15719455480575562
v 0.06656686216592789 0.9920661449432373 -0.10664629936218262
v 0.04651929810643196 0.9775412082672119 -0.148891881108284
v 0.09079296141862869 0.9649010300636292 -0.16555476188659668
v 0.11083947867155075 0.9794260263442993 -0.1233091950416565
v -0.15914002060890198 -0.47864484786987305 -0.042419206351041794
v -0.06832195073366165 -0.47864484786987305 0.15611620247364044
v 0.03939852863550186 -0.4786427617073059 -0.13323935866355896
v 0.130216583609581 -0.4786427617073059 0.06529604643583298
v -0.17563974857330322 -0.9541100263595581 -0.04855993017554283
v -0.074465811252594 -0.9541100263595581 0.17261487245559692
v 0.045536112040281296 -0.9541100263595581 -0.14973491430282593
v 0.14671003818511963 -0.9541100263595581 0.07143989950418472
vt 0.1962 0.3186
vt 0.0308 0.2607
vt 0.0332 0.0941
vt 0.1962 0.0307
vt 0.5509 0.3186
vt 0.3871 0.2603
vt 0.3914 0.0935
vt 0.5509 0.0307
vt 0.5493 0.6189
vt 0.3908 0.5543
vt 0.3871 0.3876
vt 0.5493 0.3310
vt 0.3743 0.3186
vt 0.2129 0.2555
vt 0.2090 0.0887
vt 0.3743 0.0307
vt 0.6766 0.5728
vt 0.6766 0.8607
vt 0.5621 0.7492
vt 0.5621 0.6842
vt 0.1582 0.7703
vt 0.1585 0.6034
vt 0.1917 0.5727
vt 0.1917 0.8021
vt 0.7103 0.0307
vt 0.7103 0.2599
vt 0.5736 0.1964
vt 0.5637 0.0827
vt 0.8970 0.8304
vt 0.8970 0.6637
vt 0.9300 0.6313
vt 0.9300 0.8606
vt 0.9378 0.2274
vt 0.9377 0.0607
vt 0.9691 0.0307
vt 0.9691 0.2599
vt 0.9380 0.5302
vt 0.9384 0.3633
vt 0.9692 0.3310
vt 0.9692 0.5604
vt 0.6894 0.7079
vt 0.6897 0.5939
vt 0.7105 0.5728
vt 0.7105 0.7289
vt 0.1884 0.3310
vt 0.1884 0.5603
vt 0.0308 0.5074
vt 0.0401 0.3937
vt 0.3641 0.3310
vt 0.3641 0.5605
vt 0.2180 0.5047
vt 0.2090 0.3908
vt 0.7106 0.3310
vt 0.7106 0.5604
vt 0.5621 0.5012
vt 0.5714 0.3873
vt 0.8842 0.8010
vt 0.7234 0.8010
vt 0.8239 0.6313
vt 0.8386 0.6334
vt 0.9428 0.7667
vt 0.9430 0.6528
vt 0.9652 0.6313
vt 0.9652 0.7873
vt 0.8107 0.9488
vt 0.8106 0.8350
vt 0.8321 0.8135
vt 0.8321 0.9693
vt 0.9428 0.9340
vt 0.9428 0.8201
vt 0.9647 0.7998
vt 0.9647 0.9558
vt 0.5637 0.2883
vt 0.5637 0.2738
vt 0.5718 0.2724
vt 0.5718 0.2869
vt 0.3696 0.9393
vt 0.2090 0.9393
vt 0.2622 0.7740
vt 0.2769 0.7711
vt 0.3697 0.7587
vt 0.2090 0.7587
vt 0.3037 0.5729
vt 0.3183 0.5760
vt 0.5478 0.8144
vt 0.3871 0.8144
vt 0.4313 0.6342
vt 0.4461 0.6314
vt 0.8551 0.3310
vt 0.9220 0.3310
vt 0.9252 0.4656
vt 0.8508 0.4656
vt 0.1454 0.5727
vt 0.1454 0.8606
vt 0.0308 0.7492
vt 0.0308 0.6842
vt 0.7234 0.6189
vt 0.7234 0.3310
vt 0.8380 0.4424
vt 0.8380 0.5074
vt 0.8377 0.0307
vt 0.8377 0.3185
vt 0.7231 0.2070
vt 0.7231 0.1420
vt 0.7234 0.8135
vt 0.7978 0.8135
vt 0.7978 0.8859
vt 0.7234 0.8859
vt 0.8536 0.1811
vt 0.9204 0.1811
vt 0.9249 0.3183
vt 0.8505 0.3183
vt 0.8547 0.0307
vt 0.9215 0.0307
vt 0.9249 0.1687
vt 0.8505 0.1687
vt 0.9223 0.6117
vt 0.8554 0.6117
vt 0.8508 0.4781
vt 0.9252 0.4781
vn -0.8482 0.3625 0.3862
vn -0.3737 0.4043 -0.8348
vn 0.8317 0.4005 -0.3845
vn 0.3878 0.3590 0.8490
vn -0.0000 -1.0000 0.0000
vn -0.0149 -0.9995 0.0278
vn 0.8298 0.3876 -0.4016
vn -0.0117 -0.9996 0.0266
vn 0.0264 -0.9997 -0.0004
vn -0.0259 -0.9995 -0.0179
vn -0.0835 -0.9963 0.0208
vn -0.8330 0.4145 0.3665
vn 0.3924 0.3682 0.8429
vn -0.3471 0.4334 -0.8317
vn -0.3698 0.2120 -0.9046
vn -0.0430 -0.9876 0.1508
vn -0.0721 -0.9873 0.1418
vn 0.0411 -0.9965 0.0723
vn 0.1218 0.9194 -0.3739
vn 0.8853 0.1716 -0.4321
vn -0.7569 0.5865 0.2881
vn 0.3814 0.5588 0.7364
vn 0.4158 0.0262 0.9091
vn -0.4158 0.0262 -0.9091
vn 0.9091 0.0262 -0.4158
vn -0.9091 0.0262 0.4158
usemtl None
s off
f 1/1/1 2/2/1 4/3/1 3/4/1
f 3/5/2 4/6/2 8/7/2 7/8/2
f 7/9/3 8/10/3 6/11/3 5/12/3
f 5/13/4 6/14/4 2/15/4 1/16/4
f 7/17/5 5/18/5 28/19/5 27/20/5
f 8/21/6 4/22/6 10/23/6 11/24/6
f 12/25/7 11/26/7 15/27/7 16/28/7
f 6/29/8 8/30/8 11/31/8 12/32/8
f 4/33/9 2/34/9 9/35/9 10/36/9
f 2/37/10 6/38/10 12/39/10 9/40/10
f 13/41/11 16/42/11 20/43/11 17/44/11
f 10/45/12 9/46/12 13/47/12 14/48/12
f 9/49/13 12/50/13 16/51/13 13/52/13
f 11/53/14 10/54/14 14/55/14 15/56/14
f 19/57/15 18/58/15 22/59/15 23/60/15
f 15/61/16 14/62/16 18/63/16 19/64/16
f 16/65/17 15/66/17 19/67/17 20/68/17
f 14/69/18 13/70/18 17/71/18 18/72/18
f 23/73/19 22/74/19 21/75/19 24/76/19
f 20/77/20 19/78/20 23/79/20 24/80/20
f 18/81/21 17/82/21 21/83/21 22/84/21
f 17/85/22 20/86/22 24/87/22 21/88/22
f 28/89/23 26/90/23 30/91/23 32/92/23
f 5/93/5 1/94/5 26/95/5 28/96/5
f 3/97/5 7/98/5 27/99/5 25/100/5
f 1/101/5 3/102/5 25/103/5 26/104/5
f 29/105/5 31/106/5 32/107/5 30/108/5
f 25/109/24 27/110/24 31/111/24 29/112/24
f 27/113/25 28/114/25 32/115/25 31/116/25
f 26/117/26 25/118/26 29/119/26 30/120/26

